<svg width="58" height="58" viewBox="0 0 58 58" fill="none" xmlns="http://www.w3.org/2000/svg">
<path d="M18.241 26.941C17.977 27.2168 17.77 27.542 17.632 27.898C17.3419 28.604 17.3419 29.396 17.632 30.102C17.77 30.458 17.977 30.7832 18.241 31.059L26.941 39.759C27.4871 40.3051 28.2277 40.6119 29 40.6119C29.7723 40.6119 30.5129 40.3051 31.059 39.759C31.6051 39.2129 31.9119 38.4723 31.9119 37.7C31.9119 36.9277 31.6051 36.1871 31.059 35.641L27.289 31.9H37.7C38.4691 31.9 39.2067 31.5945 39.7506 31.0506C40.2945 30.5068 40.6 29.7691 40.6 29C40.6 28.2309 40.2945 27.4933 39.7506 26.9494C39.2067 26.4055 38.4691 26.1 37.7 26.1H27.289L31.059 22.359C31.3308 22.0894 31.5465 21.7687 31.6938 21.4153C31.841 21.0619 31.9168 20.6828 31.9168 20.3C31.9168 19.9172 31.841 19.5381 31.6938 19.1847C31.5465 18.8313 31.3308 18.5106 31.059 18.241C30.7894 17.9692 30.4687 17.7535 30.1153 17.6062C29.7619 17.459 29.3828 17.3832 29 17.3832C28.6172 17.3832 28.2381 17.459 27.8847 17.6062C27.5313 17.7535 27.2106 17.9692 26.941 18.241L18.241 26.941ZM0 29C0 34.7357 1.70082 40.3425 4.88738 45.1116C8.07394 49.8806 12.6031 53.5976 17.9022 55.7925C23.2012 57.9875 29.0322 58.5618 34.6576 57.4428C40.2831 56.3238 45.4504 53.5618 49.5061 49.5061C53.5618 45.4504 56.3238 40.2831 57.4428 34.6576C58.5617 29.0322 57.9874 23.2012 55.7925 17.9022C53.5976 12.6031 49.8805 8.07395 45.1115 4.88738C40.3425 1.70082 34.7356 0 29 0C25.1917 0 21.4206 0.750108 17.9022 2.20749C14.3837 3.66488 11.1868 5.80101 8.4939 8.49391C3.05535 13.9325 0 21.3087 0 29ZM52.2 29C52.2 33.5885 50.8393 38.074 48.2901 41.8892C45.7408 45.7045 42.1175 48.6781 37.8782 50.434C33.639 52.19 28.9743 52.6494 24.4739 51.7542C19.9735 50.8591 15.8397 48.6495 12.5951 45.4049C9.35054 42.1603 7.14096 38.0265 6.24578 33.5261C5.3506 29.0257 5.81004 24.361 7.56599 20.1218C9.32195 15.8825 12.2955 12.2592 16.1108 9.70991C19.926 7.16066 24.4115 5.8 29 5.8C35.153 5.8 41.054 8.24428 45.4049 12.5951C49.7557 16.946 52.2 22.847 52.2 29Z" fill="#808080"/>
</svg>
