<svg width="291" height="41" viewBox="0 0 291 41" fill="none" xmlns="http://www.w3.org/2000/svg">
<path d="M32.6882 4.61727H0.244917V10.3137H13.0713V31.0246H19.8618V10.3137H32.6882V4.61727ZM46.0301 31.4018C55.1972 31.4018 61.4218 28.0821 61.4218 19.9335C61.4218 11.7473 55.1972 8.42747 46.0301 8.42747C36.8252 8.42747 30.6384 11.7473 30.6384 19.9335C30.6384 28.0821 36.8252 31.4018 46.0301 31.4018ZM46.0301 26.0072C40.0319 26.0072 37.0893 24.5359 37.0893 19.9335C37.0893 15.2934 40.0319 13.8221 46.0301 13.8221C51.9906 13.8221 54.9331 15.2934 54.9331 19.9335C54.9331 24.5359 51.9906 26.0072 46.0301 26.0072ZM81.4194 8.42747C76.6284 8.42747 72.7805 9.74784 70.3661 12.2377V8.80472H63.8774V40.4558H70.3661V27.5916C72.7805 30.1192 76.6284 31.4018 81.4194 31.4018C88.5871 31.4018 94.6608 28.4216 94.6608 19.9335C94.6608 11.4455 88.5871 8.42747 81.4194 8.42747ZM79.2691 26.0072C73.4972 26.0072 70.3661 24.3096 70.3661 19.9335C70.3661 15.5197 73.4972 13.8221 79.2691 13.8221C85.041 13.8221 88.2099 15.5197 88.2099 19.9335C88.2099 24.3096 85.041 26.0072 79.2691 26.0072ZM114.377 21.9329C114.377 29.5533 120.828 31.4018 131.655 31.4018C141.426 31.4018 148.103 29.9683 148.103 22.9138C148.103 16.2365 141.652 15.6706 131.24 15.1048C123.544 14.6521 121.96 14.2748 121.96 12.2377C121.96 10.276 123.544 9.63466 130.221 9.63466C137.276 9.63466 140.181 10.3514 140.181 13.2562H146.971C146.971 6.72986 140.935 4.24003 130.976 4.24003C121.092 4.24003 115.169 6.08854 115.169 11.8981C115.169 17.8209 119.734 19.6317 131.24 20.1599C139.803 20.5748 141.312 20.9521 141.312 23.1401C141.312 25.215 139.162 26.0072 132.032 26.0072C123.431 26.0072 121.167 24.7246 121.167 21.9329H114.377ZM165.2 26.1581C160.9 26.1581 157.505 24.9886 156.788 21.4425H180.781C180.781 11.3323 174.028 8.42747 165.578 8.42747C156.562 8.42747 150.186 11.7473 150.186 19.9335C150.186 28.0821 156.75 31.4018 165.2 31.4018C173.424 31.4018 178.932 28.7234 180.404 23.0647H173.99C172.368 25.3282 169.652 26.1581 165.2 26.1581ZM165.54 13.3317C169.614 13.3317 172.783 14.1994 173.877 17.3305H157.014C158.033 14.1994 161.126 13.3317 165.54 13.3317ZM183.241 0.844799V31.0246H189.692V0.844799H183.241ZM192.709 0.844799V31.0246H199.16V0.844799H192.709ZM216.63 26.1581C212.329 26.1581 208.934 24.9886 208.217 21.4425H232.21C232.21 11.3323 225.458 8.42747 217.007 8.42747C207.991 8.42747 201.615 11.7473 201.615 19.9335C201.615 28.0821 208.18 31.4018 216.63 31.4018C224.854 31.4018 230.362 28.7234 231.833 23.0647H225.42C223.798 25.3282 221.081 26.1581 216.63 26.1581ZM216.969 13.3317C221.044 13.3317 224.213 14.1994 225.307 17.3305H208.444C209.462 14.1994 212.556 13.3317 216.969 13.3317ZM252.514 8.42747C248.364 8.42747 244.441 9.59694 241.121 12.5772V8.80472H234.67V31.0246H241.121V17.7078C245.045 14.6521 249.194 13.8221 252.816 13.8221C254.702 13.8221 256.4 14.0485 258.512 14.5766V9.18197C257.003 8.80472 255.155 8.42747 252.514 8.42747ZM259.529 23.2156C259.529 30.3078 267.451 31.4018 276.015 31.4018C284.578 31.4018 290.237 30.3078 290.237 24.0455C290.237 18.1227 284.314 17.8964 275.637 17.2551C267.979 16.6892 266.81 16.4628 266.81 15.067C266.81 13.7844 268.545 13.3317 274.657 13.3317C280.655 13.3317 282.994 13.7844 282.994 15.6329H289.482C289.482 9.52149 283.409 8.42747 275.034 8.42747C267.112 8.42747 260.321 9.52149 260.321 15.3311C260.321 20.688 265.112 21.4425 274.883 22.0084C282.692 22.4988 283.748 22.612 283.748 24.3096C283.748 26.0449 282.616 26.4976 275.637 26.4976C268.432 26.4976 265.98 25.5922 265.98 23.2156H259.529Z" fill="#DE343D"/>
</svg>
