<svg width="20" height="20" viewBox="0 0 20 20" fill="none" xmlns="http://www.w3.org/2000/svg">
<path d="M14 4.96777C14 4.70256 14.1054 4.4482 14.2929 4.26067C14.4804 4.07313 14.7348 3.96777 15 3.96777C15.2652 3.96777 15.5196 4.07313 15.7071 4.26067C15.8946 4.4482 16 4.70256 16 4.96777C16 5.23299 15.8946 5.48734 15.7071 5.67488C15.5196 5.86242 15.2652 5.96777 15 5.96777C14.7348 5.96777 14.4804 5.86242 14.2929 5.67488C14.1054 5.48734 14 5.23299 14 4.96777Z" fill="#CEAAD0"/>
<path fill-rule="evenodd" clip-rule="evenodd" d="M10 5.21777C8.74022 5.21777 7.53204 5.71822 6.64124 6.60902C5.75045 7.49981 5.25 8.70799 5.25 9.96777C5.25 11.2276 5.75045 12.4357 6.64124 13.3265C7.53204 14.2173 8.74022 14.7178 10 14.7178C11.2598 14.7178 12.468 14.2173 13.3588 13.3265C14.2496 12.4357 14.75 11.2276 14.75 9.96777C14.75 8.70799 14.2496 7.49981 13.3588 6.60902C12.468 5.71822 11.2598 5.21777 10 5.21777ZM6.75 9.96777C6.75 9.10582 7.09241 8.27917 7.7019 7.66968C8.3114 7.06018 9.13805 6.71777 10 6.71777C10.862 6.71777 11.6886 7.06018 12.2981 7.66968C12.9076 8.27917 13.25 9.10582 13.25 9.96777C13.25 10.8297 12.9076 11.6564 12.2981 12.2659C11.6886 12.8754 10.862 13.2178 10 13.2178C9.13805 13.2178 8.3114 12.8754 7.7019 12.2659C7.09241 11.6564 6.75 10.8297 6.75 9.96777Z" fill="#CEAAD0"/>
<path fill-rule="evenodd" clip-rule="evenodd" d="M15.2581 0.800319C11.7634 0.412915 8.23669 0.412915 4.74206 0.800319C2.73006 1.02532 1.10506 2.61032 0.869056 4.63232C0.454455 8.1769 0.454455 11.7577 0.869056 15.3023C1.10506 17.3243 2.72906 18.9093 4.74206 19.1343C8.23671 19.5213 11.7634 19.5213 15.2581 19.1343C17.2701 18.9093 18.8951 17.3243 19.1311 15.3023C19.5457 11.7577 19.5457 8.1769 19.1311 4.63232C18.8951 2.61032 17.2711 1.02532 15.2581 0.800319ZM4.90806 2.29032C8.29236 1.91519 11.7078 1.91519 15.0921 2.29032C16.4221 2.44032 17.4871 3.48932 17.6421 4.80732C18.043 8.23564 18.043 11.699 17.6421 15.1273C17.5619 15.7724 17.2666 16.3715 16.8039 16.8281C16.3412 17.2846 15.7381 17.5718 15.0921 17.6433C11.7078 18.0185 8.29236 18.0185 4.90806 17.6433C4.262 17.5718 3.65891 17.2846 3.19621 16.8281C2.73351 16.3715 2.43823 15.7724 2.35806 15.1273C1.9571 11.699 1.9571 8.23564 2.35806 4.80732C2.43823 4.16228 2.73351 3.5631 3.19621 3.10657C3.65891 2.65004 4.262 2.36183 4.90806 2.29032Z" fill="#CEAAD0"/>
</svg>
