<svg width="36" height="37" viewBox="0 0 36 37" fill="none" xmlns="http://www.w3.org/2000/svg">
<path fill-rule="evenodd" clip-rule="evenodd" d="M35.1075 26.2652C34.2915 24.6219 33.2163 23.1207 31.923 21.8192C31.4905 21.3304 31.0376 20.86 30.5655 20.4092L30.5085 20.3537C30.3332 20.1835 30.1602 20.011 29.9895 19.8362C31.7574 17.3779 33.2702 14.7458 34.5045 11.9807L34.554 11.8697L34.5885 11.7527C34.752 11.2082 34.938 10.1732 34.278 9.23722C33.594 8.27122 32.5005 8.09722 31.767 8.09722H28.3965C27.6908 8.06506 26.9929 8.25697 26.4029 8.64549C25.8128 9.034 25.3608 9.59921 25.1115 10.2602C24.3861 11.9877 23.478 13.6325 22.4025 15.1667V11.2172C22.4025 10.7072 22.3545 9.85222 21.807 9.13222C21.153 8.26822 20.2065 8.09722 19.5495 8.09722H14.2005C13.5025 8.08116 12.8251 8.33416 12.3085 8.80383C11.7919 9.2735 11.4758 9.92386 11.4255 10.6202L11.421 10.6877V10.7552C11.421 11.4827 11.709 12.0197 11.94 12.3572C12.0435 12.5087 12.153 12.6467 12.2235 12.7337L12.2385 12.7532C12.3135 12.8462 12.363 12.9077 12.4125 12.9767C12.5445 13.1537 12.732 13.4297 12.786 14.1407V16.3502C11.7123 14.5522 10.8319 12.6456 10.1595 10.6622L10.1475 10.6292L10.1355 10.5977C9.9525 10.1192 9.66 9.42322 9.0735 8.89222C8.3895 8.26972 7.5795 8.09722 6.843 8.09722H3.423C2.6775 8.09722 1.779 8.27122 1.1085 8.97772C0.45 9.67372 0.375 10.5077 0.375 10.9487V11.1497L0.417 11.3447C1.36395 15.7409 3.31535 19.8583 6.1185 23.3747C7.40006 25.3957 9.13993 27.0861 11.197 28.3089C13.254 29.5317 15.5703 30.2525 17.958 30.4127L18.0195 30.4172H18.0825C19.1715 30.4172 20.307 30.3227 21.1605 29.7542C22.311 28.9862 22.4025 27.8087 22.4025 27.2207V25.5137C22.698 25.7537 23.064 26.0747 23.5125 26.5067C24.0555 27.0497 24.4875 27.5207 24.858 27.9317L25.056 28.1507C25.344 28.4717 25.6275 28.7882 25.8855 29.0477C26.2095 29.3732 26.61 29.7317 27.111 29.9972C27.6555 30.2837 28.227 30.4142 28.833 30.4142H32.2545C32.976 30.4142 34.0095 30.2432 34.737 29.4002C35.529 28.4822 35.469 27.3557 35.22 26.5472L35.175 26.4017L35.1075 26.2652ZM26.5275 26.4242C26.0626 25.9045 25.5839 25.3974 25.092 24.9032L25.0875 24.8987C23.052 22.9367 22.1025 22.5962 21.4305 22.5962C21.072 22.5962 20.6775 22.6352 20.421 22.9562C20.3055 23.1093 20.2298 23.2887 20.2005 23.4782C20.1643 23.6983 20.1483 23.9212 20.1525 24.1442V27.2207C20.1525 27.6032 20.0895 27.7637 19.9125 27.8807C19.677 28.0382 19.1745 28.1657 18.096 28.1657C16.0473 28.0263 14.061 27.4027 12.3003 26.346C10.5396 25.2894 9.05478 23.83 7.968 22.0877L7.956 22.0682L7.941 22.0502C5.32967 18.8 3.50977 14.9871 2.625 10.9127C2.631 10.7177 2.673 10.5992 2.742 10.5272C2.8125 10.4522 2.985 10.3472 3.423 10.3472H6.843C7.2225 10.3472 7.4205 10.4312 7.563 10.5587C7.722 10.7057 7.863 10.9532 8.031 11.3942C8.871 13.8632 10.005 16.1732 11.0805 17.8697C11.6175 18.7187 12.1455 19.4252 12.6225 19.9247C12.861 20.1737 13.0935 20.3807 13.317 20.5277C13.5315 20.6687 13.776 20.7812 14.028 20.7812C14.16 20.7812 14.3145 20.7662 14.463 20.7017C14.6234 20.6309 14.7554 20.5084 14.838 20.3537C14.9925 20.0717 15.036 19.6562 15.036 19.1117V14.0522C14.9565 12.8252 14.586 12.1337 14.226 11.6432C14.1531 11.5451 14.0781 11.4486 14.001 11.3537L13.9815 11.3297C13.9175 11.252 13.8565 11.172 13.7985 11.0897C13.7247 10.998 13.6802 10.8861 13.671 10.7687C13.6828 10.6495 13.7396 10.5393 13.83 10.4607C13.9203 10.3821 14.0373 10.3409 14.157 10.3457H19.5495C19.8585 10.3457 19.962 10.4207 20.0145 10.4912C20.0895 10.5887 20.1525 10.7912 20.1525 11.2172V18.0092C20.1525 18.8162 20.5245 19.3622 21.0645 19.3622C21.6855 19.3622 22.134 18.9857 22.917 18.2027L22.9305 18.1877L22.9425 18.1742C24.699 16.0326 26.134 13.6466 27.2025 11.0912L27.2085 11.0732C27.2888 10.8475 27.4407 10.6541 27.6411 10.5228C27.8416 10.3914 28.0794 10.3293 28.3185 10.3457H31.7685C32.2365 10.3457 32.3895 10.4657 32.4405 10.5362C32.493 10.6112 32.5305 10.7717 32.4405 11.0867C31.2084 13.8413 29.6852 16.4561 27.897 18.8867L27.885 18.9047C27.7125 19.1702 27.522 19.4642 27.495 19.8002C27.465 20.1632 27.621 20.4917 27.8955 20.8457C28.095 21.1397 28.5075 21.5432 28.926 21.9527L28.965 21.9917C29.403 22.4207 29.8785 22.8857 30.2595 23.3357L30.27 23.3462L30.2805 23.3582C31.4166 24.4914 32.3614 25.8015 33.078 27.2372C33.192 27.6272 33.123 27.8282 33.033 27.9317C32.9295 28.0517 32.697 28.1642 32.256 28.1642H28.833C28.5997 28.1699 28.3689 28.1157 28.1625 28.0067C27.9096 27.8596 27.6801 27.6756 27.4815 27.4607C27.267 27.2462 27.0345 26.9867 26.7495 26.6702L26.529 26.4242H26.5275Z" fill="#FFF9F4"/>
</svg>
