<svg width="36" height="37" viewBox="0 0 36 37" fill="none" xmlns="http://www.w3.org/2000/svg">
<path d="M33.75 18.8697C33.75 18.7924 33.75 18.7045 33.7465 18.6025C33.743 18.3178 33.7359 17.9979 33.7289 17.6568C33.7008 16.676 33.6516 15.6986 33.5742 14.7775C33.4688 13.5084 33.3141 12.4502 33.1031 11.6557C32.8805 10.8265 32.4442 10.0703 31.8377 9.4626C31.2313 8.85492 30.476 8.41706 29.6473 8.19277C28.6523 7.92559 26.7047 7.76035 23.9625 7.6584C22.6582 7.60918 21.2625 7.57754 19.8668 7.55996C19.3781 7.55293 18.9246 7.54941 18.5168 7.5459H17.4832C17.0754 7.54941 16.6219 7.55293 16.1332 7.55996C14.7375 7.57754 13.3418 7.60918 12.0375 7.6584C9.29531 7.76387 7.34414 7.9291 6.35273 8.19277C5.52375 8.41651 4.76813 8.85419 4.1616 9.46195C3.55507 10.0697 3.11892 10.8262 2.89688 11.6557C2.68242 12.4502 2.53125 13.5084 2.42578 14.7775C2.34844 15.6986 2.29922 16.676 2.27109 17.6568C2.26055 17.9979 2.25703 18.3178 2.25352 18.6025C2.25352 18.7045 2.25 18.7924 2.25 18.8697V19.0666C2.25 19.1439 2.25 19.2318 2.25352 19.3338C2.25703 19.6186 2.26406 19.9385 2.27109 20.2795C2.29922 21.2604 2.34844 22.2377 2.42578 23.1588C2.53125 24.4279 2.68594 25.4861 2.89688 26.2807C3.34688 27.9646 4.66875 29.2936 6.35273 29.7436C7.34414 30.0107 9.29531 30.176 12.0375 30.2779C13.3418 30.3271 14.7375 30.3588 16.1332 30.3764C16.6219 30.3834 17.0754 30.3869 17.4832 30.3904H18.5168C18.9246 30.3869 19.3781 30.3834 19.8668 30.3764C21.2625 30.3588 22.6582 30.3271 23.9625 30.2779C26.7047 30.1725 28.6559 30.0072 29.6473 29.7436C31.3312 29.2936 32.6531 27.9682 33.1031 26.2807C33.3176 25.4861 33.4688 24.4279 33.5742 23.1588C33.6516 22.2377 33.7008 21.2604 33.7289 20.2795C33.7395 19.9385 33.743 19.6186 33.7465 19.3338C33.7465 19.2318 33.75 19.1439 33.75 19.0666V18.8697ZM31.2188 19.0525C31.2188 19.1264 31.2188 19.2072 31.2152 19.3021C31.2117 19.5764 31.2047 19.8787 31.1977 20.2057C31.173 21.1408 31.1238 22.076 31.05 22.9443C30.9551 24.0764 30.8215 25.0045 30.6562 25.6268C30.4383 26.4389 29.7984 27.0822 28.9898 27.2967C28.2516 27.4936 26.3918 27.6518 23.8641 27.7467C22.5844 27.7959 21.2062 27.8275 19.8316 27.8451C19.35 27.8521 18.9035 27.8557 18.5027 27.8557H17.4973L16.1684 27.8451C14.7937 27.8275 13.4191 27.7959 12.1359 27.7467C9.6082 27.6482 7.74492 27.4936 7.01016 27.2967C6.20156 27.0787 5.56172 26.4389 5.34375 25.6268C5.17852 25.0045 5.04492 24.0764 4.95 22.9443C4.87617 22.076 4.83047 21.1408 4.80234 20.2057C4.7918 19.8787 4.78828 19.5729 4.78477 19.3021C4.78477 19.2072 4.78125 19.1229 4.78125 19.0525V18.8838C4.78125 18.81 4.78125 18.7291 4.78477 18.6342C4.78828 18.36 4.79531 18.0576 4.80234 17.7307C4.82695 16.7955 4.87617 15.8604 4.95 14.992C5.04492 13.86 5.17852 12.9318 5.34375 12.3096C5.56172 11.4975 6.20156 10.8541 7.01016 10.6396C7.74844 10.4428 9.6082 10.2846 12.1359 10.1896C13.4156 10.1404 14.7937 10.1088 16.1684 10.0912C16.65 10.0842 17.0965 10.0807 17.4973 10.0807H18.5027L19.8316 10.0912C21.2062 10.1088 22.5809 10.1404 23.8641 10.1896C26.3918 10.2881 28.2551 10.4428 28.9898 10.6396C29.7984 10.8576 30.4383 11.4975 30.6562 12.3096C30.8215 12.9318 30.9551 13.86 31.05 14.992C31.1238 15.8604 31.1695 16.7955 31.1977 17.7307C31.2082 18.0576 31.2117 18.3635 31.2152 18.6342C31.2152 18.7291 31.2188 18.8135 31.2188 18.8838V19.0525ZM14.8711 23.6791L23.0273 18.933L14.8711 14.2572V23.6791Z" fill="#FFF9F4"/>
</svg>
