<svg width="174" height="58" viewBox="0 0 174 58" fill="none" xmlns="http://www.w3.org/2000/svg">
<path d="M94.4649 47.8383C92.4908 46.1396 90.5856 44.3262 88.7492 42.3981C86.9588 40.424 85.2831 38.404 83.7222 36.3381C82.2072 34.2722 80.807 32.1834 79.5216 30.0715C78.282 27.9138 77.2261 25.802 76.3539 23.7361C74.793 25.4348 73.232 27.1563 71.6711 28.9009C70.1562 30.5995 68.8018 32.3211 67.6082 34.0656C66.4146 35.7642 65.4505 37.4858 64.716 39.2304C63.9355 40.929 63.5453 42.6276 63.5453 44.3262C63.5453 46.3462 63.8896 48.0908 64.5782 49.5598C65.221 50.983 66.0932 52.1537 67.195 53.0719C68.2968 53.9901 69.5593 54.6557 70.9825 55.0689C72.4057 55.4821 73.8748 55.6887 75.3898 55.6887C78.4197 55.6887 81.6334 54.9771 85.0306 53.5539C88.4279 52.1307 91.5726 50.2255 94.4649 47.8383ZM85.9258 7.00235C85.9258 5.39554 85.5586 4.24782 84.824 3.55919C84.1354 2.82465 83.3779 2.45738 82.5515 2.45738C81.8629 2.45738 81.1284 2.68692 80.3479 3.14601C79.6134 3.6051 78.9247 4.27077 78.282 5.14304C77.6852 5.9694 77.1802 6.9794 76.767 8.17303C76.3538 9.36666 76.1473 10.6751 76.1473 12.0982C76.1473 14.715 76.6293 17.4925 77.5934 20.4307C78.7411 19.2371 79.82 18.0664 80.83 16.9187C81.84 15.7709 82.7122 14.6462 83.4468 13.5444C84.2272 12.3966 84.824 11.2948 85.2372 10.2389C85.6963 9.13711 85.9258 8.05825 85.9258 7.00235ZM112.438 57.2725C112.438 57.4103 112.346 57.548 112.163 57.6857C111.979 57.8234 111.704 57.8923 111.336 57.8923C108.582 57.02 105.873 55.8035 103.211 54.2426C100.548 52.6357 97.954 50.7764 95.429 48.6646C93.6844 49.996 91.871 51.2126 89.9888 52.3144C88.1065 53.4162 86.1783 54.3573 84.2043 55.1378C82.2761 55.9182 80.325 56.515 78.3509 56.9282C76.4227 57.3414 74.5634 57.548 72.773 57.548C71.0284 57.548 69.3757 57.2955 67.8148 56.7905C66.2539 56.3314 64.8996 55.6198 63.7519 54.6557C62.6041 53.6457 61.7089 52.4062 61.0662 50.9371C60.3776 49.468 60.0333 47.7464 60.0333 45.7724C60.0333 43.6606 60.5153 41.5947 61.4794 39.5747C62.4435 37.5088 63.683 35.4888 65.198 33.5147C66.713 31.5406 68.3887 29.6125 70.225 27.7302C72.1073 25.8479 73.9436 24.0116 75.7341 22.2211C74.4027 18.6402 73.737 15.4037 73.737 12.5114C73.737 10.8128 74.0354 9.25188 74.6323 7.82871C75.275 6.40553 76.0784 5.18895 77.0425 4.17896C78.0066 3.16896 79.0625 2.38851 80.2102 1.83761C81.4038 1.24079 82.5286 0.942383 83.5845 0.942383C84.824 0.942383 85.9488 1.35556 86.9588 2.18192C87.9688 2.96237 88.4738 4.27077 88.4738 6.10713C88.4738 7.25485 88.1754 8.44848 87.5786 9.68802C87.0277 10.9276 86.2702 12.213 85.3061 13.5444C84.3879 14.8298 83.2861 16.1841 82.0006 17.6073C80.7611 18.9846 79.4527 20.4077 78.0754 21.8768C79.5904 26.0545 81.84 30.3011 84.824 34.6165C87.854 38.886 91.5267 42.8801 95.8422 46.5987C98.1835 44.4869 100.066 42.1685 101.489 39.6435C102.912 37.1186 103.624 34.4788 103.624 31.7243C103.624 30.8061 103.486 29.8879 103.211 28.9697C102.981 28.0056 102.499 26.9957 101.764 25.9397C101.764 25.8479 101.902 25.7561 102.178 25.6643C102.453 25.5266 102.706 25.4577 102.935 25.4577C103.578 25.4577 104.083 25.6872 104.45 26.1463C104.863 26.5595 105.162 27.0645 105.345 27.6613C105.575 28.2581 105.713 28.8779 105.758 29.5206C105.85 30.1175 105.896 30.5995 105.896 30.9668C105.896 33.9968 105.047 36.9349 103.348 39.7813C101.696 42.5817 99.5378 45.1526 96.8751 47.494C101.328 51.3044 106.355 54.4032 111.956 56.7905C112.278 56.9741 112.438 57.1348 112.438 57.2725Z" fill="#FFA55C"/>
<path d="M13.9084 32.8757C13.9084 31.4415 13.8158 30.2502 13.6308 29.3017C13.4689 28.3533 13.2375 27.8791 12.9368 27.8791C12.7517 27.8791 12.5783 28.0179 12.4163 28.2955C12.2544 28.5499 12.1156 28.9201 11.9999 29.4058C11.9074 29.8685 11.8264 30.4237 11.757 31.0714C11.7108 31.696 11.6876 32.3784 11.6876 33.1186C11.6876 34.4372 11.7802 35.8598 11.9652 37.3866C12.1503 38.8902 12.4742 40.3475 12.9368 41.7586C13.2607 40.2781 13.5036 38.763 13.6655 37.2131C13.8274 35.6401 13.9084 34.1943 13.9084 32.8757ZM28.4472 17.1224C28.4472 17.2381 28.4009 17.3306 28.3084 17.4C28.2159 17.4694 28.1002 17.5504 27.9614 17.6429C27.2674 18.0593 26.7007 18.6376 26.2612 19.3779C25.8217 20.1181 25.4631 20.9277 25.1855 21.8068C24.931 22.6858 24.7576 23.588 24.665 24.5133C24.5725 25.4155 24.5262 26.2482 24.5262 27.0116C24.5262 27.5437 24.5494 28.2029 24.5956 28.9894C24.665 29.7528 24.7344 30.5972 24.8038 31.5225C24.8963 32.4478 24.9657 33.4309 25.012 34.4719C25.0814 35.4897 25.1161 36.5307 25.1161 37.5948C25.1161 39.0984 25.0236 40.5557 24.8385 41.9668C24.6766 43.3779 24.3412 44.6386 23.8323 45.749C23.3465 46.8594 22.6641 47.75 21.785 48.4208C20.906 49.0917 19.7609 49.4271 18.3498 49.4271C17.7021 49.4271 17.0891 49.2998 16.5108 49.0454C15.9556 48.8141 15.4351 48.4786 14.9493 48.0391C14.4867 47.5996 14.0587 47.0907 13.6655 46.5124C13.2954 45.9341 12.9599 45.2979 12.6592 44.6039C12.3585 45.4136 11.9999 46.1654 11.5836 46.8594C11.1903 47.5533 10.7508 48.1548 10.265 48.6637C9.77921 49.1726 9.24716 49.5659 8.66885 49.8435C8.09053 50.1211 7.47752 50.2598 6.82981 50.2598C5.83511 50.2598 4.99077 50.0054 4.29679 49.4965C3.62595 48.9876 3.07076 48.3167 2.63125 47.4839C2.19173 46.6743 1.84474 45.749 1.59028 44.708C1.35895 43.6439 1.18546 42.5683 1.0698 41.481C0.954134 40.3707 0.87317 39.295 0.826905 38.254C0.803773 37.1899 0.78064 36.2531 0.757508 35.4434C0.711242 33.9861 0.734375 32.6097 0.826905 31.3143C0.942568 29.9957 1.0698 28.816 1.20859 27.775C1.34739 26.7109 1.48618 25.7972 1.62498 25.0338C1.76377 24.2704 1.8563 23.7037 1.90257 23.3335C1.9257 23.1947 2.0645 23.1022 2.31896 23.0559C2.59655 23.0097 2.83944 22.9865 3.04763 22.9865C3.20956 22.9865 3.34836 23.0097 3.46402 23.0559C3.57968 23.0791 3.63751 23.1485 3.63751 23.2641C3.63751 23.4029 3.57968 23.6458 3.46402 23.9928C3.34836 24.3167 3.17486 24.9412 2.94354 25.8666C2.85101 26.2829 2.74691 26.8844 2.63125 27.6709C2.53872 28.4343 2.44619 29.3017 2.35366 30.2733C2.28426 31.2449 2.22643 32.2858 2.18016 33.3962C2.1339 34.4834 2.11076 35.5475 2.11076 36.5885C2.11076 37.3981 2.14546 38.2887 2.21486 39.2603C2.28426 40.2087 2.39992 41.1572 2.56185 42.1056C2.72378 43.0309 2.94354 43.9331 3.22113 44.8121C3.49872 45.6912 3.83414 46.4661 4.22739 47.137C4.64378 47.8078 5.12956 48.3398 5.68475 48.7331C6.23993 49.1495 6.88764 49.3577 7.62788 49.3577C8.18306 49.3577 8.69198 49.2189 9.15463 48.9413C9.61728 48.6637 10.0452 48.2704 10.4385 47.7615C10.8317 47.2757 11.1787 46.6974 11.4795 46.0266C11.8033 45.3557 12.0925 44.6271 12.3469 43.8406C11.8149 42.3832 11.4216 40.8333 11.1672 39.1909C10.9127 37.5485 10.7855 36.0333 10.7855 34.6454C10.7855 33.6275 10.8202 32.6213 10.8896 31.6266C10.9821 30.6319 11.1093 29.7413 11.2713 28.9548C11.4332 28.1682 11.6414 27.5321 11.8958 27.0463C12.1503 26.5605 12.451 26.3176 12.798 26.3176C13.0756 26.3176 13.3185 26.4911 13.5267 26.8381C13.758 27.1851 13.9431 27.6593 14.0819 28.2608C14.2438 28.8622 14.3595 29.5793 14.4289 30.4121C14.5214 31.2217 14.5677 32.1008 14.5677 33.0492C14.5677 34.576 14.4636 36.1837 14.2554 37.8724C14.0472 39.5379 13.7233 41.1687 13.2838 42.7649C13.5845 43.5745 13.9315 44.3263 14.3248 45.0203C14.718 45.6912 15.1575 46.281 15.6433 46.79C16.1522 47.2989 16.7074 47.6921 17.3089 47.9697C17.9334 48.2705 18.6159 48.4208 19.3561 48.4208C20.3739 48.4208 21.2067 48.1664 21.8544 47.6574C22.5021 47.1717 23.011 46.5008 23.3812 45.6449C23.7513 44.7659 24.0057 43.7596 24.1445 42.6261C24.2833 41.4695 24.3527 40.2319 24.3527 38.9133C24.3527 37.7336 24.3065 36.5191 24.2139 35.2699C24.1445 34.0208 24.0636 32.7832 23.971 31.5572C23.8785 30.308 23.786 29.1051 23.6935 27.9485C23.6241 26.7687 23.5894 25.6815 23.5894 24.6868C23.5894 23.9697 23.6935 23.1369 23.9016 22.1885C24.133 21.24 24.4337 20.3494 24.8038 19.5167C25.1971 18.6608 25.6366 17.9436 26.1224 17.3653C26.6313 16.7639 27.1633 16.4632 27.7185 16.4632C27.8805 16.4632 28.0424 16.5441 28.2043 16.7061C28.3662 16.8448 28.4472 16.9836 28.4472 17.1224Z" fill="#1F1711"/>
<path d="M39.2816 40.1625C39.2816 39.8155 39.2238 39.5379 39.1082 39.3297C38.9925 39.0984 38.8074 38.9827 38.553 38.9827C38.1597 38.9827 37.859 39.1793 37.6508 39.5726C37.4426 39.9427 37.3501 40.4169 37.3732 40.9953C37.4426 42.2213 37.6624 43.2507 38.0325 44.0835C38.4257 43.5514 38.7265 42.95 38.9347 42.2791C39.166 41.6083 39.2816 40.9027 39.2816 40.1625ZM48.6503 40.1278C48.4884 40.4748 48.3149 40.8333 48.1299 41.2034C47.9448 41.5504 47.7366 41.8974 47.5053 42.2444C46.3255 44.0025 45.1342 45.3095 43.9313 46.1654C42.7284 47.0213 41.6065 47.4492 40.5655 47.4492C39.2469 47.4492 38.2407 46.8247 37.5467 45.5755C36.7371 46.3851 35.8233 46.9982 34.8055 47.4145C33.8108 47.8309 32.8277 48.0391 31.8561 48.0391C31.2778 48.0391 30.7226 47.9582 30.1905 47.7962C29.6816 47.6343 29.2421 47.3914 28.872 47.0676C28.4787 46.7206 28.1664 46.2926 27.9351 45.7837C27.7038 45.2516 27.5881 44.6386 27.5881 43.9447C27.5881 43.1119 27.7848 42.2675 28.178 41.4116C28.5481 40.5326 29.0686 39.7461 29.7395 39.0521C30.4334 38.335 31.2431 37.7451 32.1684 37.2825C33.0937 36.8198 34.0999 36.5885 35.1872 36.5885C36.0662 36.5885 36.7486 36.7157 37.2344 36.9702C37.7202 37.2015 37.9631 37.4213 37.9631 37.6295C37.9631 37.722 37.9168 37.7914 37.8243 37.8377C37.7318 37.8839 37.6508 37.9071 37.5814 37.9071C37.5583 37.8839 37.5351 37.8724 37.512 37.8724H37.4773C37.1997 37.6179 36.8874 37.4213 36.5404 37.2825C36.1934 37.1206 35.6845 37.0396 35.0137 37.0396C34.1115 37.0396 33.2903 37.2362 32.5501 37.6295C31.833 37.9996 31.2199 38.4969 30.711 39.1215C30.2021 39.723 29.8089 40.3938 29.5313 41.134C29.2537 41.8743 29.1149 42.603 29.1149 43.3201C29.1149 44.708 29.4387 45.7143 30.0864 46.3389C30.7342 46.9635 31.5438 47.2757 32.5154 47.2757C33.3019 47.2757 34.1231 47.0791 34.979 46.6859C35.8349 46.2926 36.5983 45.7374 37.2691 45.0203C36.899 44.1875 36.7139 43.1003 36.7139 41.7586C36.7139 40.8796 36.8759 40.1162 37.1997 39.4685C37.5236 38.8208 37.9862 38.4969 38.5877 38.4969C39.4204 38.4969 39.8368 38.9827 39.8368 39.9543C39.8368 40.9259 39.698 41.8049 39.4204 42.5914C39.1428 43.3548 38.7727 44.0488 38.3101 44.6733C38.9578 45.8762 39.86 46.4777 41.0166 46.4777C41.8956 46.4777 42.8325 46.1076 43.8272 45.3673C44.845 44.6271 45.8397 43.5514 46.8113 42.1403C47.0426 41.7933 47.2508 41.4348 47.4359 41.0647C47.6209 40.6945 47.806 40.3244 47.9911 39.9543L48.6503 40.1278Z" fill="#1F1711"/>
<path d="M53.47 24.6174C53.47 23.2988 53.2502 22.2463 52.8107 21.4598C52.3943 20.6502 51.6887 20.2453 50.694 20.2453C50.3471 20.2453 50.0232 20.361 49.7225 20.5923C49.4449 20.8005 49.202 21.0897 48.9938 21.4598C48.7856 21.8299 48.6237 22.2579 48.508 22.7437C48.3924 23.2294 48.3345 23.7499 48.3345 24.3051C48.3345 25.8319 48.3461 27.2198 48.3692 28.469C48.3924 29.7181 48.4155 30.8979 48.4386 32.0082C48.4849 33.1186 48.5312 34.1943 48.5774 35.2352C48.6237 36.2762 48.6699 37.3403 48.7162 38.4275C49.3871 37.5254 50.0116 36.496 50.59 35.3393C51.1683 34.1596 51.6656 32.9567 52.082 31.7307C52.5215 30.4815 52.8569 29.2439 53.0883 28.0179C53.3427 26.7919 53.47 25.6584 53.47 24.6174ZM66.0309 40.1278C65.869 40.4748 65.6955 40.8333 65.5105 41.2034C65.3485 41.5736 65.1403 41.9206 64.8859 42.2444C63.6136 44.0488 62.1678 45.4714 60.5485 46.5124C58.9292 47.5302 57.3215 48.0391 55.7254 48.0391C54.7307 48.0391 53.7822 47.8078 52.8801 47.3451C51.9779 46.9056 51.1798 46.1885 50.4859 45.1938C50.3933 45.0782 50.3471 44.9741 50.3471 44.8815C50.3471 44.6733 50.4859 44.5692 50.7634 44.5692C50.7866 44.5692 50.8675 44.5924 51.0063 44.6386C51.1914 44.6386 51.3996 44.708 51.6309 44.8468C51.8854 44.9625 52.2439 45.0203 52.7066 45.0203C53.4237 45.0203 54.0945 44.8931 54.7191 44.6386C55.3437 44.3842 55.8757 44.0603 56.3153 43.6671C56.7779 43.2507 57.1365 42.788 57.3909 42.2791C57.6454 41.7471 57.7726 41.2034 57.7726 40.6483C57.7726 39.9543 57.5876 39.3528 57.2174 38.8439C56.8704 38.335 56.269 38.0806 55.4131 38.0806C54.5341 38.0806 53.7244 38.3928 52.9842 39.0174C52.2439 39.6189 51.5731 40.3591 50.9716 41.2381C50.3933 42.0941 49.896 43.0078 49.4796 43.9794C49.0632 44.9278 48.7509 45.7606 48.5427 46.4777C48.4271 46.8709 48.323 47.1138 48.2304 47.2064C48.1379 47.2989 48.0338 47.3451 47.9181 47.3451C47.6637 47.3451 47.548 47.1023 47.5711 46.6165C47.5711 46.4083 47.5827 46.1538 47.6058 45.8531C47.629 45.5524 47.6521 45.2285 47.6752 44.8815C47.6752 44.5345 47.6868 44.1875 47.7099 43.8406C47.7331 43.4704 47.7446 43.135 47.7446 42.8343C47.7446 41.7933 47.7215 40.602 47.6752 39.2603C47.629 37.8955 47.5711 36.496 47.5018 35.0617C47.4324 33.6044 47.3745 32.1586 47.3283 30.7244C47.282 29.2902 47.2589 27.9716 47.2589 26.7687C47.2589 25.8203 47.3283 24.9065 47.4671 24.0275C47.6058 23.1253 47.8256 22.3388 48.1263 21.668C48.4271 20.974 48.8087 20.4304 49.2714 20.0371C49.734 19.6208 50.2777 19.4126 50.9022 19.4126C51.55 19.4126 52.0936 19.5282 52.5331 19.7596C52.9957 19.9677 53.3659 20.28 53.6434 20.6964C53.921 21.0897 54.1177 21.5755 54.2333 22.1538C54.3721 22.709 54.4415 23.322 54.4415 23.9928C54.4415 25.1494 54.2796 26.4217 53.9557 27.8097C53.6319 29.1745 53.2039 30.5509 52.6719 31.9389C52.1398 33.3268 51.5268 34.6685 50.8328 35.9639C50.162 37.2362 49.468 38.3466 48.7509 39.295C48.7972 39.989 48.8203 40.7061 48.8203 41.4463C48.8434 42.1866 48.8781 42.9731 48.9244 43.8059C49.5027 42.5567 50.1389 41.481 50.8328 40.5789C51.1336 40.1856 51.469 39.8039 51.8391 39.4338C52.2324 39.0406 52.6372 38.6936 53.0536 38.3928C53.4931 38.0921 53.9557 37.8492 54.4415 37.6642C54.9504 37.4791 55.4825 37.3866 56.0377 37.3866C56.9167 37.3866 57.6801 37.6063 58.3278 38.0459C58.9755 38.4854 59.2994 39.1909 59.2994 40.1625C59.2994 41.0878 59.068 41.8743 58.6054 42.522C58.1659 43.1697 57.6107 43.7133 56.9398 44.1529C56.269 44.5692 55.5519 44.8815 54.7885 45.0897C54.0251 45.2979 53.3312 45.4251 52.7066 45.4714C52.6603 45.4714 52.6372 45.483 52.6372 45.5061C52.6372 45.5524 52.6719 45.6218 52.7413 45.7143C53.2039 46.2463 53.7244 46.628 54.3027 46.8594C54.881 47.0907 55.4825 47.2064 56.1071 47.2064C56.8704 47.2064 57.6454 47.0676 58.4319 46.79C59.2184 46.4892 59.9702 46.1076 60.6873 45.6449C61.4044 45.1591 62.0637 44.6155 62.6652 44.0141C63.2897 43.3895 63.7986 42.7649 64.1919 42.1403C64.4232 41.7933 64.6314 41.4348 64.8165 41.0647C65.0015 40.6945 65.1866 40.3244 65.3717 39.9543L66.0309 40.1278Z" fill="#1F1711"/>
<path d="M70.9227 37.9765C70.9227 37.3519 70.7607 36.843 70.4369 36.4497C70.1362 36.0333 69.6388 35.8251 68.9448 35.8251C68.5747 35.8251 68.2393 35.9408 67.9386 36.1721C67.6378 36.4034 67.3834 36.7157 67.1752 37.109C66.967 37.4791 66.8051 37.9186 66.6894 38.4275C66.5737 38.9365 66.5159 39.4685 66.5159 40.0237C66.5159 40.9027 66.6084 41.6892 66.7935 42.3832C67.0017 43.0541 67.2909 43.6439 67.661 44.1529C68.1468 43.7596 68.5863 43.3085 68.9795 42.7996C69.3728 42.2907 69.7082 41.7586 69.9858 41.2034C70.2865 40.6483 70.5178 40.0931 70.6798 39.5379C70.8417 38.9827 70.9227 38.4622 70.9227 37.9765ZM79.7015 40.1278C79.5395 40.4748 79.3661 40.8333 79.181 41.2034C79.0191 41.5504 78.8109 41.8974 78.5564 42.2444C77.4229 43.8637 76.1275 45.0897 74.6701 45.9225C73.2359 46.7321 71.8595 47.137 70.541 47.137C69.8007 47.137 69.1068 47.0097 68.459 46.7553C67.8345 46.5008 67.2909 46.1191 66.8282 45.6102C66.3655 45.1013 65.9954 44.4651 65.7178 43.7018C65.4402 42.9384 65.3015 42.0362 65.3015 40.9953C65.3015 40.3013 65.4055 39.6073 65.6137 38.9133C65.8219 38.2193 66.0995 37.5948 66.4465 37.0396C66.8166 36.4844 67.233 36.0333 67.6957 35.6863C68.1815 35.3393 68.6904 35.1658 69.2224 35.1658C70.0783 35.1658 70.7029 35.4203 71.0962 35.9292C71.4894 36.415 71.686 37.0396 71.686 37.803C71.686 38.8439 71.3622 39.9774 70.7145 41.2034C70.0899 42.4063 69.1877 43.5283 68.008 44.5692C68.887 45.5639 70.0205 46.0613 71.4084 46.0613C72.4494 46.0613 73.5366 45.749 74.6701 45.1244C75.8036 44.4767 76.8677 43.482 77.8624 42.1403C78.1169 41.8165 78.3251 41.4695 78.487 41.0993C78.6721 40.7061 78.8571 40.3244 79.0422 39.9543L79.7015 40.1278Z" fill="#1F1711"/>
<path d="M109.763 31.3837C108.907 31.3837 108.086 31.4762 107.3 31.6613C106.536 31.8463 105.854 32.0661 105.252 32.3205C104.674 32.575 104.2 32.841 103.83 33.1186C103.483 33.3962 103.309 33.6391 103.309 33.8473C103.309 34.1249 103.633 34.2637 104.281 34.2637C105.391 34.2637 106.444 33.9977 107.438 33.4656C108.456 32.9336 109.37 32.2396 110.18 31.3837H109.763ZM119.861 36.5885C119.861 37.722 119.537 38.948 118.889 40.2666C118.264 41.5851 117.397 42.8921 116.287 44.1875C115.176 45.483 113.858 46.7321 112.331 47.935C110.804 49.1379 109.162 50.202 107.404 51.1273C105.646 52.0526 103.795 52.7813 101.852 53.3134C99.9087 53.8685 97.9656 54.1461 96.0224 54.1461C95.6986 54.1461 95.34 54.1346 94.9467 54.1114C94.5766 54.0883 94.2296 54.0305 93.9058 53.9379C93.5819 53.8685 93.3043 53.7413 93.073 53.5562C92.8417 53.3943 92.726 53.163 92.726 52.8623C92.726 52.4459 92.9342 52.0411 93.3506 51.6478C93.767 51.2777 94.299 50.9307 94.9467 50.6068C95.5945 50.283 96.3 49.9938 97.0634 49.7394C97.8268 49.4849 98.5554 49.2652 99.2494 49.0801C99.9665 48.895 100.591 48.7447 101.123 48.629C101.655 48.5365 102.014 48.4902 102.199 48.4902C102.338 48.4902 102.442 48.5249 102.511 48.5943C102.58 48.6637 102.615 48.7331 102.615 48.8025C102.615 48.9182 102.557 48.976 102.442 48.976H101.991C101.389 48.976 100.626 49.0917 99.7005 49.323C98.7752 49.5543 97.873 49.8435 96.994 50.1905C96.1149 50.5374 95.3631 50.9191 94.7386 51.3355C94.114 51.775 93.8017 52.1799 93.8017 52.55C93.8017 52.8044 93.8827 53.0011 94.0446 53.1399C94.2296 53.3018 94.4494 53.429 94.7039 53.5215C94.9583 53.6141 95.2243 53.6719 95.5019 53.695C95.7795 53.7413 96.0224 53.7644 96.2306 53.7644C97.873 53.7644 99.5501 53.4868 101.262 52.9317C102.997 52.3765 104.674 51.6362 106.293 50.7109C107.936 49.8088 109.474 48.7562 110.908 47.5533C112.366 46.3736 113.638 45.1476 114.725 43.8753C115.812 42.5798 116.668 41.296 117.293 40.0237C117.917 38.7283 118.23 37.5254 118.23 36.415C118.23 35.0502 117.663 33.9167 116.529 33.0145C115.419 32.0892 113.58 31.5572 111.012 31.4184C109.971 32.3899 108.826 33.1764 107.577 33.7779C106.351 34.3793 105.102 34.6801 103.83 34.6801C102.927 34.6801 102.476 34.4603 102.476 34.0208C102.476 33.7432 102.661 33.4309 103.032 33.0839C103.425 32.7138 103.957 32.3668 104.628 32.0429C105.322 31.7191 106.143 31.4531 107.091 31.2449C108.04 31.0135 109.081 30.8979 110.214 30.8979H110.631C111.394 29.9957 112.007 29.0126 112.47 27.9485C112.932 26.8612 113.164 25.7972 113.164 24.7562C113.164 24.0622 113.036 23.4029 112.782 22.7784C112.551 22.1306 112.157 21.5755 111.602 21.1128C111.07 20.6502 110.365 20.28 109.486 20.0024C108.63 19.7249 107.589 19.5861 106.363 19.5861C105.53 19.5861 104.373 19.7017 102.893 19.933C101.435 20.1644 99.8509 20.5229 98.139 21.0087C96.4504 21.4714 94.727 22.0612 92.9689 22.7784C91.2108 23.4955 89.6147 24.3282 88.1805 25.2767C86.7463 26.2251 85.5781 27.3008 84.6759 28.5037C83.7737 29.7066 83.3226 31.0367 83.3226 32.494C83.3226 32.6791 83.2879 32.841 83.2185 32.9798C83.1491 33.0955 83.0797 33.1533 83.0103 33.1533C82.9178 33.1533 82.8484 33.0608 82.8021 32.8757C82.7327 32.6675 82.6981 32.3321 82.6981 31.8695C82.9062 30.3658 83.5193 29.001 84.5371 27.775C85.5549 26.549 86.8156 25.4617 88.3193 24.5133C89.7998 23.5417 91.4306 22.709 93.2118 22.015C94.993 21.321 96.7511 20.7543 98.486 20.3147C100.244 19.8521 101.875 19.5167 103.379 19.3085C104.905 19.0771 106.154 18.9615 107.126 18.9615C108.537 18.9615 109.728 19.1003 110.7 19.3779C111.695 19.6323 112.504 19.9909 113.129 20.4535C113.754 20.893 114.205 21.4251 114.482 22.0497C114.76 22.6743 114.899 23.3335 114.899 24.0275C114.899 25.161 114.586 26.3408 113.962 27.5668C113.36 28.7697 112.539 29.8916 111.498 30.9326C112.979 31.002 114.251 31.1986 115.315 31.5225C116.379 31.8232 117.247 32.228 117.917 32.7369C118.588 33.2227 119.074 33.801 119.375 34.4719C119.699 35.1196 119.861 35.8251 119.861 36.5885ZM101.47 45.7143C101.47 46.0382 101.447 46.2695 101.401 46.4083C101.354 46.5471 101.227 46.6165 101.019 46.6165C100.556 46.6627 100.325 46.2001 100.325 45.2285C100.302 42.0362 100.267 39.1215 100.221 36.4844C100.198 33.8473 100.163 31.5687 100.117 29.6487C100.094 27.7056 100.071 26.1673 100.047 25.0338C100.024 23.9003 100.013 23.2526 100.013 23.0906C100.013 22.9056 100.071 22.7784 100.186 22.709C100.302 22.6396 100.441 22.5817 100.603 22.5355C100.788 22.5355 100.927 22.5933 101.019 22.709C101.135 22.8246 101.193 22.9634 101.193 23.1253C101.193 24.9759 101.204 26.8844 101.227 28.8507C101.25 30.7938 101.274 32.7369 101.297 34.6801C101.343 36.6232 101.378 38.5316 101.401 40.4054C101.447 42.2791 101.47 44.0488 101.47 45.7143Z" fill="#1F1711"/>
<path d="M133.348 40.1625C133.348 39.8155 133.29 39.5379 133.175 39.3297C133.059 39.0984 132.874 38.9827 132.619 38.9827C132.226 38.9827 131.925 39.1793 131.717 39.5726C131.509 39.9427 131.417 40.4169 131.44 40.9953C131.509 42.2213 131.729 43.2507 132.099 44.0835C132.492 43.5514 132.793 42.95 133.001 42.2791C133.232 41.6083 133.348 40.9027 133.348 40.1625ZM142.717 40.1278C142.555 40.4748 142.381 40.8333 142.196 41.2034C142.011 41.5504 141.803 41.8974 141.572 42.2444C140.392 44.0025 139.201 45.3095 137.998 46.1654C136.795 47.0213 135.673 47.4492 134.632 47.4492C133.313 47.4492 132.307 46.8247 131.613 45.5755C130.804 46.3851 129.89 46.9982 128.872 47.4145C127.877 47.8309 126.894 48.0391 125.923 48.0391C125.344 48.0391 124.789 47.9582 124.257 47.7962C123.748 47.6343 123.309 47.3914 122.938 47.0676C122.545 46.7206 122.233 46.2926 122.002 45.7837C121.77 45.2516 121.655 44.6386 121.655 43.9447C121.655 43.1119 121.851 42.2675 122.244 41.4116C122.615 40.5326 123.135 39.7461 123.806 39.0521C124.5 38.335 125.31 37.7451 126.235 37.2825C127.16 36.8198 128.166 36.5885 129.254 36.5885C130.133 36.5885 130.815 36.7157 131.301 36.9702C131.787 37.2015 132.03 37.4213 132.03 37.6295C132.03 37.722 131.983 37.7914 131.891 37.8377C131.798 37.8839 131.717 37.9071 131.648 37.9071C131.625 37.8839 131.602 37.8724 131.578 37.8724H131.544C131.266 37.6179 130.954 37.4213 130.607 37.2825C130.26 37.1206 129.751 37.0396 129.08 37.0396C128.178 37.0396 127.357 37.2362 126.617 37.6295C125.899 37.9996 125.286 38.4969 124.777 39.1215C124.269 39.723 123.875 40.3938 123.598 41.134C123.32 41.8743 123.181 42.603 123.181 43.3201C123.181 44.708 123.505 45.7143 124.153 46.3389C124.801 46.9635 125.61 47.2757 126.582 47.2757C127.368 47.2757 128.19 47.0791 129.045 46.6859C129.901 46.2926 130.665 45.7374 131.336 45.0203C130.965 44.1875 130.78 43.1003 130.78 41.7586C130.78 40.8796 130.942 40.1162 131.266 39.4685C131.59 38.8208 132.053 38.4969 132.654 38.4969C133.487 38.4969 133.903 38.9827 133.903 39.9543C133.903 40.9259 133.764 41.8049 133.487 42.5914C133.209 43.3548 132.839 44.0488 132.377 44.6733C133.024 45.8762 133.926 46.4777 135.083 46.4777C135.962 46.4777 136.899 46.1076 137.894 45.3673C138.911 44.6271 139.906 43.5514 140.878 42.1403C141.109 41.7933 141.317 41.4348 141.502 41.0647C141.687 40.6945 141.872 40.3244 142.057 39.9543L142.717 40.1278Z" fill="#1F1711"/>
<path d="M147.536 24.6174C147.536 23.2988 147.317 22.2463 146.877 21.4598C146.461 20.6502 145.755 20.2453 144.76 20.2453C144.414 20.2453 144.09 20.361 143.789 20.5923C143.511 20.8005 143.268 21.0897 143.06 21.4598C142.852 21.8299 142.69 22.2579 142.574 22.7437C142.459 23.2294 142.401 23.7499 142.401 24.3051C142.401 25.8319 142.413 27.2198 142.436 28.469C142.459 29.7181 142.482 30.8979 142.505 32.0082C142.551 33.1186 142.598 34.1943 142.644 35.2352C142.69 36.2762 142.736 37.3403 142.783 38.4275C143.453 37.5254 144.078 36.496 144.656 35.3393C145.235 34.1596 145.732 32.9567 146.148 31.7307C146.588 30.4815 146.923 29.2439 147.155 28.0179C147.409 26.7919 147.536 25.6584 147.536 24.6174ZM160.097 40.1278C159.935 40.4748 159.762 40.8333 159.577 41.2034C159.415 41.5736 159.207 41.9206 158.952 42.2444C157.68 44.0488 156.234 45.4714 154.615 46.5124C152.996 47.5302 151.388 48.0391 149.792 48.0391C148.797 48.0391 147.849 47.8078 146.947 47.3451C146.044 46.9056 145.246 46.1885 144.552 45.1938C144.46 45.0782 144.413 44.9741 144.413 44.8815C144.413 44.6733 144.552 44.5692 144.83 44.5692C144.853 44.5692 144.934 44.5924 145.073 44.6386C145.258 44.6386 145.466 44.708 145.697 44.8468C145.952 44.9625 146.31 45.0203 146.773 45.0203C147.49 45.0203 148.161 44.8931 148.786 44.6386C149.41 44.3842 149.942 44.0603 150.382 43.6671C150.844 43.2507 151.203 42.788 151.457 42.2791C151.712 41.7471 151.839 41.2034 151.839 40.6483C151.839 39.9543 151.654 39.3528 151.284 38.8439C150.937 38.335 150.335 38.0806 149.48 38.0806C148.601 38.0806 147.791 38.3928 147.051 39.0174C146.31 39.6189 145.64 40.3591 145.038 41.2381C144.46 42.0941 143.962 43.0078 143.546 43.9794C143.13 44.9278 142.817 45.7606 142.609 46.4777C142.493 46.8709 142.389 47.1138 142.297 47.2064C142.204 47.2989 142.1 47.3451 141.985 47.3451C141.73 47.3451 141.614 47.1023 141.638 46.6165C141.638 46.4083 141.649 46.1538 141.672 45.8531C141.695 45.5524 141.719 45.2285 141.742 44.8815C141.742 44.5345 141.753 44.1875 141.776 43.8406C141.8 43.4704 141.811 43.135 141.811 42.8343C141.811 41.7933 141.788 40.602 141.742 39.2603C141.695 37.8955 141.638 36.496 141.568 35.0617C141.499 33.6044 141.441 32.1586 141.395 30.7244C141.348 29.2902 141.325 27.9716 141.325 26.7687C141.325 25.8203 141.395 24.9065 141.533 24.0275C141.672 23.1253 141.892 22.3388 142.193 21.668C142.494 20.974 142.875 20.4304 143.338 20.0371C143.8 19.6208 144.344 19.4126 144.969 19.4126C145.616 19.4126 146.16 19.5282 146.6 19.7596C147.062 19.9677 147.432 20.28 147.71 20.6964C147.987 21.0897 148.184 21.5755 148.3 22.1538C148.439 22.709 148.508 23.322 148.508 23.9928C148.508 25.1494 148.346 26.4217 148.022 27.8097C147.698 29.1745 147.27 30.5509 146.738 31.9389C146.206 33.3268 145.593 34.6685 144.899 35.9639C144.228 37.2362 143.534 38.3466 142.817 39.295C142.864 39.989 142.887 40.7061 142.887 41.4463C142.91 42.1866 142.945 42.9731 142.991 43.8059C143.569 42.5567 144.205 41.481 144.899 40.5789C145.2 40.1856 145.535 39.8039 145.906 39.4338C146.299 39.0406 146.704 38.6936 147.12 38.3928C147.56 38.0921 148.022 37.8492 148.508 37.6642C149.017 37.4791 149.549 37.3866 150.104 37.3866C150.983 37.3866 151.747 37.6063 152.394 38.0459C153.042 38.4854 153.366 39.1909 153.366 40.1625C153.366 41.0878 153.134 41.8743 152.672 42.522C152.232 43.1697 151.677 43.7133 151.006 44.1529C150.335 44.5692 149.618 44.8815 148.855 45.0897C148.092 45.2979 147.398 45.4251 146.773 45.4714C146.727 45.4714 146.704 45.483 146.704 45.5061C146.704 45.5524 146.738 45.6218 146.808 45.7143C147.27 46.2463 147.791 46.628 148.369 46.8594C148.947 47.0907 149.549 47.2064 150.174 47.2064C150.937 47.2064 151.712 47.0676 152.498 46.79C153.285 46.4892 154.037 46.1076 154.754 45.6449C155.471 45.1591 156.13 44.6155 156.732 44.0141C157.356 43.3895 157.865 42.7649 158.258 42.1403C158.49 41.7933 158.698 41.4348 158.883 41.0647C159.068 40.6945 159.253 40.3244 159.438 39.9543L160.097 40.1278Z" fill="#1F1711"/>
<path d="M164.989 37.9765C164.989 37.3519 164.827 36.843 164.503 36.4497C164.203 36.0333 163.705 35.8251 163.011 35.8251C162.641 35.8251 162.306 35.9408 162.005 36.1721C161.704 36.4034 161.45 36.7157 161.242 37.109C161.033 37.4791 160.872 37.9186 160.756 38.4275C160.64 38.9365 160.582 39.4685 160.582 40.0237C160.582 40.9027 160.675 41.6892 160.86 42.3832C161.068 43.0541 161.357 43.6439 161.727 44.1529C162.213 43.7596 162.653 43.3085 163.046 42.7996C163.439 42.2907 163.775 41.7586 164.052 41.2034C164.353 40.6483 164.584 40.0931 164.746 39.5379C164.908 38.9827 164.989 38.4622 164.989 37.9765ZM173.768 40.1278C173.606 40.4748 173.433 40.8333 173.247 41.2034C173.086 41.5504 172.877 41.8974 172.623 42.2444C171.489 43.8637 170.194 45.0897 168.737 45.9225C167.302 46.7321 165.926 47.137 164.607 47.137C163.867 47.137 163.173 47.0097 162.525 46.7553C161.901 46.5008 161.357 46.1191 160.895 45.6102C160.432 45.1013 160.062 44.4651 159.784 43.7018C159.507 42.9384 159.368 42.0362 159.368 40.9953C159.368 40.3013 159.472 39.6073 159.68 38.9133C159.888 38.2193 160.166 37.5948 160.513 37.0396C160.883 36.4844 161.299 36.0333 161.762 35.6863C162.248 35.3393 162.757 35.1658 163.289 35.1658C164.145 35.1658 164.769 35.4203 165.163 35.9292C165.556 36.415 165.752 37.0396 165.752 37.803C165.752 38.8439 165.429 39.9774 164.781 41.2034C164.156 42.4063 163.254 43.5283 162.074 44.5692C162.953 45.5639 164.087 46.0613 165.475 46.0613C166.516 46.0613 167.603 45.749 168.737 45.1244C169.87 44.4767 170.934 43.482 171.929 42.1403C172.183 41.8165 172.392 41.4695 172.553 41.0993C172.739 40.7061 172.924 40.3244 173.109 39.9543L173.768 40.1278Z" fill="#1F1711"/>
</svg>
