<svg width="20" height="20" viewBox="0 0 20 20" fill="none" xmlns="http://www.w3.org/2000/svg">
<path d="M10 0.217773C8.07164 0.217773 6.18657 0.789601 4.58319 1.86094C2.97982 2.93229 1.73013 4.45503 0.992179 6.23661C0.254224 8.01819 0.061142 9.97859 0.437348 11.8699C0.813554 13.7612 1.74215 15.4985 3.10571 16.8621C4.46928 18.2256 6.20656 19.1542 8.09787 19.5304C9.98919 19.9066 11.9496 19.7136 13.7312 18.9756C15.5127 18.2376 17.0355 16.988 18.1068 15.3846C19.1782 13.7812 19.75 11.8961 19.75 9.96777C19.7473 7.38275 18.7192 4.90439 16.8913 3.0765C15.0634 1.24861 12.585 0.220503 10 0.217773ZM10 18.2178C8.36831 18.2178 6.77326 17.7339 5.41655 16.8274C4.05984 15.9209 3.00242 14.6324 2.378 13.1249C1.75358 11.6174 1.5902 9.95862 1.90853 8.35828C2.22685 6.75794 3.01259 5.28793 4.16637 4.13414C5.32016 2.98036 6.79017 2.19462 8.39051 1.87629C9.99085 1.55797 11.6497 1.72134 13.1571 2.34577C14.6646 2.97019 15.9531 4.02761 16.8596 5.38432C17.7662 6.74102 18.25 8.33608 18.25 9.96777C18.2475 12.155 17.3775 14.252 15.8309 15.7987C14.2843 17.3453 12.1873 18.2153 10 18.2178ZM16 9.96777C16 10.1667 15.921 10.3575 15.7803 10.4981C15.6397 10.6388 15.4489 10.7178 15.25 10.7178H10C9.80109 10.7178 9.61033 10.6388 9.46967 10.4981C9.32902 10.3575 9.25 10.1667 9.25 9.96777V4.71777C9.25 4.51886 9.32902 4.3281 9.46967 4.18744C9.61033 4.04679 9.80109 3.96777 10 3.96777C10.1989 3.96777 10.3897 4.04679 10.5303 4.18744C10.671 4.3281 10.75 4.51886 10.75 4.71777V9.21777H15.25C15.4489 9.21777 15.6397 9.29679 15.7803 9.43744C15.921 9.5781 16 9.76886 16 9.96777Z" fill="#FFF9F4"/>
</svg>
