<svg width="20" height="20" viewBox="0 0 20 20" fill="none" xmlns="http://www.w3.org/2000/svg">
<path d="M10 0.592773C8.1458 0.592773 6.33324 1.14261 4.79153 2.17275C3.24982 3.20288 2.04821 4.66706 1.33863 6.38012C0.629062 8.09317 0.443406 9.97817 0.805142 11.7967C1.16688 13.6153 2.05976 15.2858 3.37088 16.5969C4.682 17.908 6.35246 18.8009 8.17103 19.1626C9.9896 19.5244 11.8746 19.3387 13.5877 18.6291C15.3007 17.9196 16.7649 16.718 17.795 15.1762C18.8252 13.6345 19.375 11.822 19.375 9.96777C19.3723 7.48221 18.3837 5.09922 16.6261 3.34166C14.8686 1.5841 12.4856 0.595503 10 0.592773ZM10 18.5928C8.29414 18.5928 6.62658 18.0869 5.20821 17.1392C3.78984 16.1915 2.68435 14.8444 2.03154 13.2684C1.37874 11.6924 1.20793 9.95821 1.54073 8.28512C1.87353 6.61203 2.69498 5.07521 3.90121 3.86898C5.10744 2.66275 6.64426 1.8413 8.31735 1.5085C9.99044 1.1757 11.7246 1.34651 13.3006 1.99931C14.8767 2.65212 16.2237 3.75761 17.1714 5.17598C18.1192 6.59435 18.625 8.26191 18.625 9.96777C18.6225 12.2545 17.713 14.4469 16.0961 16.0638C14.4791 17.6808 12.2867 18.5903 10 18.5928ZM13.3 12.4437C12.7804 13.1361 12.0562 13.6475 11.2298 13.9054C10.4035 14.1633 9.51692 14.1548 8.69571 13.8809C7.87451 13.607 7.16028 13.0818 6.65416 12.3795C6.14805 11.6772 5.87571 10.8334 5.87571 9.96777C5.87571 9.10211 6.14805 8.25838 6.65416 7.55608C7.16028 6.85378 7.87451 6.3285 8.69571 6.05464C9.51692 5.78078 10.4035 5.77221 11.2298 6.03014C12.0562 6.28808 12.7804 6.79945 13.3 7.49184C13.3296 7.53123 13.3512 7.57608 13.3635 7.6238C13.3757 7.67153 13.3785 7.72121 13.3716 7.77001C13.3646 7.8188 13.3482 7.86575 13.3231 7.90819C13.298 7.95062 13.2649 7.9877 13.2255 8.0173C13.1861 8.04691 13.1412 8.06847 13.0935 8.08075C13.0458 8.09303 12.9961 8.09579 12.9473 8.08887C12.8985 8.08195 12.8516 8.06548 12.8091 8.04042C12.7667 8.01535 12.7296 7.98217 12.7 7.94277C12.275 7.37609 11.6825 6.9575 11.0063 6.74629C10.3302 6.53508 9.60474 6.54197 8.93274 6.76597C8.26073 6.98997 7.67624 7.41973 7.26206 7.99438C6.84788 8.56902 6.625 9.25942 6.625 9.96777C6.625 10.6761 6.84788 11.3665 7.26206 11.9412C7.67624 12.5158 8.26073 12.9456 8.93274 13.1696C9.60474 13.3936 10.3302 13.4005 11.0063 13.1893C11.6825 12.978 12.275 12.5595 12.7 11.9928C12.7598 11.9132 12.8488 11.8607 12.9473 11.8467C13.0458 11.8327 13.1459 11.8584 13.2255 11.9182C13.305 11.978 13.3576 12.067 13.3716 12.1655C13.3855 12.2641 13.3598 12.3641 13.3 12.4437Z" fill="#DEC5B1"/>
</svg>
