<svg width="24" height="25" viewBox="0 0 24 25" fill="none" xmlns="http://www.w3.org/2000/svg">
<path d="M12 14.4678C11.2583 14.4678 10.5333 14.2478 9.91661 13.8358C9.29993 13.4237 8.81928 12.8381 8.53545 12.1528C8.25162 11.4676 8.17736 10.7136 8.32206 9.98619C8.46675 9.25876 8.8239 8.59057 9.34835 8.06613C9.8728 7.54168 10.541 7.18452 11.2684 7.03983C11.9958 6.89514 12.7498 6.9694 13.4351 7.25323C14.1203 7.53706 14.706 8.0177 15.118 8.63439C15.5301 9.25107 15.75 9.9761 15.75 10.7178C15.7488 11.712 15.3533 12.6651 14.6503 13.3681C13.9473 14.0711 12.9942 14.4666 12 14.4678ZM12 8.46778C11.555 8.46778 11.12 8.59974 10.75 8.84697C10.38 9.0942 10.0916 9.4456 9.92127 9.85674C9.75098 10.2679 9.70642 10.7203 9.79323 11.1567C9.88005 11.5932 10.0943 11.9941 10.409 12.3088C10.7237 12.6234 11.1246 12.8377 11.561 12.9245C11.9975 13.0114 12.4499 12.9668 12.861 12.7965C13.2722 12.6262 13.6236 12.3378 13.8708 11.9678C14.118 11.5978 14.25 11.1628 14.25 10.7178C14.2494 10.1212 14.0122 9.54927 13.5903 9.12744C13.1685 8.70562 12.5966 8.46837 12 8.46778Z" fill="#FFF9F4"/>
<path d="M12 23.4678L5.67301 16.006C5.58509 15.894 5.49809 15.7812 5.41201 15.6678C4.33124 14.2441 3.74739 12.5052 3.75001 10.7178C3.75001 8.52974 4.6192 6.43132 6.16638 4.88414C7.71355 3.33697 9.81197 2.46777 12 2.46777C14.188 2.46777 16.2865 3.33697 17.8336 4.88414C19.3808 6.43132 20.25 8.52974 20.25 10.7178C20.2526 12.5044 19.669 14.2425 18.5888 15.6655L18.588 15.6678C18.588 15.6678 18.363 15.9633 18.3293 16.003L12 23.4678ZM6.60901 14.764C6.61051 14.764 6.78451 14.995 6.82426 15.0445L12 21.1488L17.1825 15.0363C17.2155 14.995 17.391 14.7625 17.3918 14.7618C18.2746 13.5986 18.7517 12.178 18.75 10.7178C18.75 8.92756 18.0388 7.21067 16.773 5.9448C15.5071 4.67893 13.7902 3.96777 12 3.96777C10.2098 3.96777 8.49291 4.67893 7.22704 5.9448C5.96117 7.21067 5.25001 8.92756 5.25001 10.7178C5.24844 12.179 5.72534 13.6003 6.60901 14.764Z" fill="#FFF9F4"/>
</svg>
